<?xml version="1.0" encoding="utf-8"?>
<!-- Generator: Adobe Illustrator 24.2.0, SVG Export Plug-In . SVG Version: 6.00 Build 0)  -->
<svg version="1.1" id="Camada_1" xmlns="http://www.w3.org/2000/svg" xmlns:xlink="http://www.w3.org/1999/xlink" x="0px" y="0px"
	 viewBox="0 0 24 24" style="enable-background:new 0 0 24 24;" xml:space="preserve">
<style type="text/css">
	.st0{fill:#3F3E3E;}
</style>
<g>
	<path class="st0" d="M18.5,2.5h-13c-0.6,0-1,0.4-1,1v17.2c0,0.3,0.2,0.5,0.5,0.5c0.1,0,0.2,0,0.2-0.1l3-1.6l3.5,1.9
		c0.1,0.1,0.3,0.1,0.5,0l3.5-1.9l3,1.6c0.2,0.1,0.5,0,0.7-0.2c0-0.1,0.1-0.2,0.1-0.2V3.5C19.5,2.9,19.1,2.5,18.5,2.5z M18,19
		l-2.3-1.2l-3.8,2l-3.8-2L6,19V4h12V19z"/>
	<path class="st0" d="M8.7,10.7h6.5c0,0,0,0,0.1,0c0.5,0,0.8-0.4,0.8-0.9c0-0.5-0.4-0.8-0.9-0.8H8.7c-0.5,0-0.8,0.4-0.8,0.8
		C7.9,10.3,8.2,10.7,8.7,10.7z"/>
	<polygon class="st0" points="7.9,9.9 7.9,9.9 7.9,9.9 	"/>
	<path class="st0" d="M8.7,13.9h6.5c0,0,0,0,0.1,0c0.5,0,0.8-0.4,0.8-0.9s-0.4-0.8-0.9-0.8H8.7c-0.5,0-0.8,0.4-0.8,0.8
		C7.9,13.5,8.2,13.9,8.7,13.9z"/>
</g>
</svg>
