<?xml version="1.0" encoding="utf-8"?>
<!-- Generator: Adobe Illustrator 24.2.0, SVG Export Plug-In . SVG Version: 6.00 Build 0)  -->
<svg version="1.1" id="Camada_1" xmlns="http://www.w3.org/2000/svg" xmlns:xlink="http://www.w3.org/1999/xlink" x="0px" y="0px"
	 viewBox="0 0 48 48" style="enable-background:new 0 0 48 48;" xml:space="preserve">
<style type="text/css">
	.st0{fill:#3F3E3E;}
	.st1{fill-rule:evenodd;clip-rule:evenodd;fill:#3F3E3E;}
</style>
<g>
	<path class="st0" d="M22,37c8.3,0,15-6.7,15-15S30.3,7,22,7S7,13.7,7,22S13.7,37,22,37z M22,40c-9.9,0-18-8.1-18-18S12.1,4,22,4
		s18,8.1,18,18S31.9,40,22,40z"/>
	<path class="st1" d="M33.6,34.1L33.6,34.1c0.6-0.6,1.5-0.6,2.1,0l6.4,6.4c0.6,0.6,0.6,1.5,0,2.1l0,0c-0.6,0.6-1.5,0.6-2.1,0
		l-6.4-6.4C33,35.6,33,34.6,33.6,34.1z"/>
</g>
</svg>
